<svg xmlns="http://www.w3.org/2000/svg" viewBox="0 0 204.7 103.52"><defs><style>.cls-1{fill:#236092;}</style></defs><title>barevne_logotyp</title><g id="Vrstva_2" data-name="Vrstva 2"><g id="Layer_1" data-name="Layer 1"><path class="cls-1" d="M69,57.44c0,6.46-4.6,12-14.29,12.85-.83.07-1.69.12-2.61.12a27.46,27.46,0,0,1-11.86-2.54L42.19,60a24.08,24.08,0,0,0,10.49,2.61,12.77,12.77,0,0,0,2-.17c3-.5,4.6-2.1,4.6-4.36s-1.34-3.53-4.6-4.95c-.71-.31-1.52-.63-2.42-1a23.54,23.54,0,0,1-7.45-4,10.57,10.57,0,0,1-4-8.38C40.82,33.2,46,28,54.73,27.33c.63,0,1.27-.08,1.93-.08a25.75,25.75,0,0,1,10.68,2.11L65.23,37a20,20,0,0,0-8.76-2,10.4,10.4,0,0,0-1.74.14c-2.91.46-4.34,2.06-4.34,3.89,0,2,1.35,3.19,4.34,4.52,1,.43,2.1.88,3.42,1.38C65.54,47.68,69,51.54,69,57.44Z"/><path class="cls-1" d="M102.55,57.44a12.33,12.33,0,0,1-.09,1.5,12,12,0,0,1-.72,3c-1.9,4.89-7.15,8.49-16.08,8.49h-.58A27,27,0,0,1,73.8,67.87L75.72,60a24.09,24.09,0,0,0,10.5,2.61,10.73,10.73,0,0,0,3.25-.44c2.23-.68,3.39-2.15,3.39-4.09A3.87,3.87,0,0,0,91.43,55a17.38,17.38,0,0,0-5.59-2.82c-7-2.42-11.48-6.27-11.48-12.36,0-5.89,4-10.64,11-12.12a22.81,22.81,0,0,1,4.82-.49,26.92,26.92,0,0,1,9,1.42c.62.22,1.2.45,1.73.69l-.57,2.08L98.76,37A20,20,0,0,0,90,35l-.73,0c-3.61.21-5.36,2-5.36,4,0,2.67,2.36,3.85,7.76,5.9l.06,0C99.09,47.7,102.55,51.56,102.55,57.44Z"/><polygon class="cls-1" points="92.24 25.64 98.45 18.06 91.87 18.06 88.76 21.91 88.64 21.91 85.47 18.06 78.83 18.06 85.1 25.64 92.24 25.64"/><path class="cls-1" d="M125.22,45c-5.41-2.05-7.77-3.23-7.77-5.9,0-2.17,2-4,6.09-4a20,20,0,0,1,8.75,2l2.12-7.64a25.79,25.79,0,0,0-10.68-2.11c-9.88,0-15.84,5.47-15.84,12.61,0,6.09,4.53,9.94,11.49,12.36,5,1.8,7,3.29,7,5.9s-2.3,4.53-6.65,4.53A24.09,24.09,0,0,1,109.25,60l-1.92,7.83a27.46,27.46,0,0,0,11.86,2.54c11.49,0,16.89-6,16.89-13C136.08,51.54,132.61,47.68,125.22,45Z"/><polygon class="cls-1" points="169.18 62.03 169.18 69.79 142.48 69.79 142.48 27.94 168.31 27.94 168.31 35.7 151.98 35.7 151.98 44.39 167.38 44.39 167.38 52.09 151.98 52.09 151.98 62.03 169.18 62.03"/><path class="cls-1" d="M54.73,86.17V97.73H21.59a11.56,11.56,0,1,1,0-11.56Z"/><path class="cls-1" d="M155.83,0H54.64A48.92,48.92,0,0,0,8.26,33.49,48.32,48.32,0,0,0,5.79,48.24V63H0l5.79,5.78h0l1.29,1.28,4.49,4.49,1-1,4.82-4.82,3.71-3.71L23.13,63H17.35V49.83c0-.32,0-.64,0-1s0-.42,0-.63A37.35,37.35,0,0,1,54.64,11.56H155.83A37.31,37.31,0,0,1,165,85a11.56,11.56,0,0,0-18.49,0,10.37,10.37,0,0,0-.89,1.37A11.38,11.38,0,0,0,144.16,92a11.53,11.53,0,0,0,1,4.59h0c.15.34.32.67.5,1A11.54,11.54,0,0,0,162,101.69a11.45,11.45,0,0,0,1.93-1.54,11.56,11.56,0,0,0,2.43-3.55A48.87,48.87,0,0,0,155.83,0Zm-.11,97.73a5.78,5.78,0,0,1,0-11.56h.11a4.92,4.92,0,0,1,.78.07l.37.07a3.92,3.92,0,0,1,.74.22,3,3,0,0,1,.32.12,5.77,5.77,0,0,1,3.07,3.2,3.17,3.17,0,0,1,.14.4,5.65,5.65,0,0,1,.26,1.7A5.74,5.74,0,0,1,159.83,96a3.6,3.6,0,0,1-.41.37,3.92,3.92,0,0,1-.32.25l-.18.13a4.64,4.64,0,0,1-.42.25,0,0,0,0,1,0,0,5.38,5.38,0,0,1-1,.43l-.42.11-.22.05a3,3,0,0,1-.43.07,5.46,5.46,0,0,1-.57,0Z"/><polygon class="cls-1" points="101.16 98.02 90.69 86.46 83.06 86.46 93.54 98.02 101.16 98.02"/><polygon class="cls-1" points="110.64 86.46 121.11 98.02 126.72 98.02 128.12 97.33 118.27 86.46 110.64 86.46"/><polygon class="cls-1" points="104.48 86.46 96.85 86.46 107.33 98.02 114.95 98.02 104.48 86.46"/><polygon class="cls-1" points="138.38 92.24 126.54 86.46 124.21 86.46 132.27 95.22 138.38 92.24"/><polygon class="cls-1" points="76.83 86.46 60.51 86.46 60.51 89.47 66.17 92.24 60.51 95 60.51 98.02 87.31 98.02 76.83 86.46"/></g></g></svg>